<?xml version="1.0" standalone="no"?>
<!DOCTYPE svg PUBLIC "-//W3C//DTD SVG 20010904//EN"
 "http://www.w3.org/TR/2001/REC-SVG-20010904/DTD/svg10.dtd">
<svg version="1.0" xmlns="http://www.w3.org/2000/svg"
 width="657.000000pt" height="180.000000pt" viewBox="0 0 657.000000 180.000000"
 preserveAspectRatio="xMidYMid meet">

<g transform="translate(0.000000,180.000000) scale(0.100000,-0.100000)"
fill="#387ed1" stroke="none">
<path d="M867 1420 c-4 -14 -12 -54 -18 -89 -14 -86 -71 -283 -104 -363 -58
-137 -163 -323 -195 -343 -15 -9 -60 96 -73 170 -33 194 99 404 295 468 15 5
23 24 44 111 l7 29 -44 -7 c-24 -4 -75 -22 -114 -41 -285 -138 -397 -459 -261
-745 42 -89 157 -205 247 -249 223 -109 473 -69 647 105 168 167 210 409 109
627 -60 130 -188 243 -320 286 -72 22 -147 35 -147 24 1 -5 9 -33 19 -63 19
-54 21 -55 81 -77 338 -124 399 -561 106 -763 -77 -52 -158 -73 -267 -68 -85
4 -104 9 -164 39 -38 19 -70 40 -72 46 -3 8 18 14 57 19 52 6 68 12 95 40 76
76 130 172 160 286 36 137 7 384 -64 543 -18 38 -19 39 -24 15z"/>
<path d="M3240 875 l0 -465 90 0 90 0 0 449 c0 247 -3 456 -6 465 -5 13 -23
16 -90 16 l-84 0 0 -465z"/>
<path d="M1790 1301 c-112 -25 -194 -90 -224 -179 -51 -148 28 -274 208 -331
34 -10 86 -27 116 -36 91 -28 122 -71 95 -130 -44 -91 -201 -82 -244 13 l-15
32 -93 0 c-108 0 -108 0 -73 -94 24 -62 78 -117 149 -150 38 -17 64 -21 156
-21 131 1 191 22 253 89 52 56 66 101 60 193 -4 63 -9 79 -35 111 -47 59 -109
94 -238 136 -131 43 -165 67 -165 116 0 105 193 116 224 13 7 -22 13 -23 102
-23 106 0 103 -3 78 79 -20 69 -90 141 -159 165 -60 20 -147 28 -195 17z"/>
<path d="M2981 1279 c-94 -93 33 -225 146 -151 56 35 51 137 -8 167 -49 26
-103 19 -138 -16z"/>
<path d="M4837 1290 c-36 -29 -52 -82 -35 -116 43 -89 163 -89 206 0 18 35 8
71 -28 107 -36 36 -103 40 -143 9z"/>
<path d="M3507 1293 c-4 -3 -7 -204 -7 -445 l0 -438 95 0 94 0 3 153 3 152
135 5 c145 6 179 15 238 65 18 15 45 51 59 79 23 44 27 64 27 141 0 75 -3 97
-23 135 -43 84 -90 121 -186 146 -52 14 -425 20 -438 7z m411 -179 c49 -34 67
-116 37 -173 -23 -46 -71 -62 -172 -59 l-88 3 -3 123 -3 122 103 0 c78 0 109
-4 126 -16z"/>
<path d="M5798 1128 l-3 -113 -53 -3 -53 -3 3 -67 3 -67 50 -5 50 -5 3 -228 2
-228 86 3 86 3 -1 215 c-1 118 2 220 7 227 4 6 30 13 57 15 l50 3 3 68 3 67
-54 0 c-67 0 -69 3 -66 130 l2 95 -86 3 -86 3 -3 -113z"/>
<path d="M1003 1160 c26 -94 16 -260 -20 -360 -31 -83 -103 -193 -167 -254
l-31 -29 45 6 c25 3 111 14 192 24 l147 18 15 40 c52 137 12 319 -110 491 -23
33 -50 67 -60 75 -16 13 -17 12 -11 -11z"/>
<path d="M2427 1006 c-81 -29 -150 -94 -184 -174 -25 -57 -23 -195 3 -252 23
-50 89 -122 133 -145 83 -42 213 -42 277 1 37 26 56 24 52 -4 -3 -15 9 -17 85
-20 l87 -3 0 301 0 300 -85 0 c-82 0 -85 -1 -91 -25 -7 -30 -9 -30 -35 -6 -42
39 -169 53 -242 27z m195 -172 c74 -38 91 -160 31 -220 -112 -112 -308 6 -245
149 22 49 36 62 88 81 41 16 82 12 126 -10z"/>
<path d="M4339 1005 c-60 -19 -133 -85 -167 -149 -23 -45 -26 -62 -26 -146 0
-84 3 -101 26 -147 29 -54 87 -108 153 -138 58 -28 193 -27 256 2 63 28 125
87 152 142 32 66 32 228 0 286 -27 51 -87 112 -137 137 -52 26 -193 34 -257
13z m165 -169 c135 -56 95 -256 -51 -256 -92 0 -139 53 -131 146 5 59 25 89
73 110 39 17 68 17 109 0z"/>
<path d="M5355 1006 c-16 -8 -43 -26 -60 -41 l-30 -27 -3 36 -3 36 -90 0 -89
0 0 -300 0 -300 89 0 90 0 3 191 3 191 33 29 c35 31 81 38 125 18 47 -21 52
-41 55 -242 l4 -188 86 3 87 3 -1 215 c0 143 -5 228 -13 253 -17 51 -57 96
-106 118 -48 22 -137 24 -180 5z"/>
<path d="M2970 710 l0 -300 90 0 90 0 -2 298 -3 297 -87 3 -88 3 0 -301z"/>
<path d="M4820 710 l0 -300 85 0 85 0 0 300 0 300 -85 0 -85 0 0 -300z"/>
<path d="M6040 450 c0 -5 5 -10 10 -10 6 0 10 5 10 10 0 6 -4 10 -10 10 -5 0
-10 -4 -10 -10z"/>
</g>
</svg>